<svg width="30" height="31" viewBox="0 0 30 31" fill="none" xmlns="http://www.w3.org/2000/svg">
<path fill-rule="evenodd" clip-rule="evenodd" d="M26.315 4.51312L18.9449 2.71724C18.4361 2.59325 18.0236 2.88107 18.0236 3.36009V10.2989C18.0236 10.7779 18.4361 11.2668 18.9449 11.3907L26.315 13.1866C26.8237 13.3106 27.2363 13.0227 27.2363 12.5437V5.60496C27.2363 5.12594 26.8237 4.63711 26.315 4.51312ZM18.9449 0.115187C16.9097 -0.380731 15.2598 0.770548 15.2598 2.68664V9.62541C15.2598 11.5415 16.9097 13.4968 18.9449 13.9927L26.315 15.7886C28.3501 16.2846 30 15.1333 30 13.2172V6.27845C30 4.36232 28.3501 2.407 26.315 1.91108L18.9449 0.115187Z" fill="#8098F9"/>
<path fill-rule="evenodd" clip-rule="evenodd" d="M20.5283 10.1661L11.3157 7.92125C10.8069 7.79726 10.3944 8.08509 10.3944 8.5641V17.2376C10.3944 17.7166 10.8069 18.2054 11.3157 18.3294L20.5283 20.5743C21.0371 20.6983 21.4495 20.4105 21.4495 19.9314V11.258C21.4495 10.7789 21.0371 10.2901 20.5283 10.1661ZM11.3157 5.31919C9.28055 4.82327 7.63067 5.97456 7.63067 7.89066V16.5641C7.63067 18.4802 9.28055 20.4356 11.3157 20.9315L20.5283 23.1764C22.5635 23.6722 24.2133 22.521 24.2133 20.6049V11.9314C24.2133 10.0153 22.5635 8.05997 20.5283 7.56408L11.3157 5.31919Z" fill="#6172F3"/>
<path fill-rule="evenodd" clip-rule="evenodd" d="M14.7402 15.8191L3.68504 13.1252C3.17624 13.0012 2.76377 13.2891 2.76377 13.7681V24.1763C2.76377 24.6553 3.17624 25.1441 3.68504 25.2681L14.7402 27.9619C15.2489 28.0859 15.6614 27.7981 15.6614 27.3191V16.9109C15.6614 16.4319 15.2489 15.9431 14.7402 15.8191ZM3.68504 10.5232C1.64985 10.0273 0 11.1785 0 13.0946V23.5028C0 25.4189 1.64985 27.3742 3.68504 27.8702L14.7402 30.564C16.7753 31.0599 18.4251 29.9086 18.4251 27.9926V17.5844C18.4251 15.6683 16.7753 13.7129 14.7402 13.217L3.68504 10.5232Z" fill="#444CE7"/>
</svg>
